<svg viewBox="0 0 400 300" xmlns="http://www.w3.org/2000/svg">
<g class="wobble">
  <!-- Crab body -->
  <ellipse cx="200" cy="150" rx="80" ry="60" fill="#ff6b35" stroke="#d84315" stroke-width="2"/>
  
  <!-- Body pattern -->
  <ellipse cx="200" cy="150" rx="70" ry="50" fill="none" stroke="#ff8a65" stroke-width="1.5" opacity="0.6"/>
  <circle cx="180" cy="140" r="8" fill="#ff8a65" opacity="0.4"/>
  <circle cx="220" cy="140" r="8" fill="#ff8a65" opacity="0.4"/>
  <circle cx="200" cy="160" r="6" fill="#ff8a65" opacity="0.4"/>
  
  <!-- Left claw arm -->
  <path d="M 120 150 Q 80 140 50 120" fill="none" stroke="#ff6b35" stroke-width="12" stroke-linecap="round"/>
  
  <!-- Left claw -->
  <g transform="translate(50, 120) rotate(-30)">
    <ellipse cx="0" cy="0" rx="25" ry="18" fill="#ff6b35" stroke="#d84315" stroke-width="2"/>
    <path d="M -20 -5 Q -25 -15 -15 -20 L 0 -10 L 0 0" fill="#ff6b35" stroke="#d84315" stroke-width="2"/>
    <path d="M -20 5 Q -25 15 -15 20 L 0 10 L 0 0" fill="#ff6b35" stroke="#d84315" stroke-width="2"/>
  </g>
  
  <!-- Right claw arm -->
  <path d="M 280 150 Q 320 140 350 120" fill="none" stroke="#ff6b35" stroke-width="12" stroke-linecap="round"/>
  
  <!-- Right claw -->
  <g transform="translate(350, 120) rotate(30)">
    <ellipse cx="0" cy="0" rx="25" ry="18" fill="#ff6b35" stroke="#d84315" stroke-width="2"/>
    <path d="M 20 -5 Q 25 -15 15 -20 L 0 -10 L 0 0" fill="#ff6b35" stroke="#d84315" stroke-width="2"/>
    <path d="M 20 5 Q 25 15 15 20 L 0 10 L 0 0" fill="#ff6b35" stroke="#d84315" stroke-width="2"/>
  </g>
  
  <!-- Left legs -->
  <path d="M 130 140 L 90 160 L 70 180" fill="none" stroke="#ff6b35" stroke-width="8" stroke-linecap="round"/>
  <path d="M 130 150 L 95 170 L 75 190" fill="none" stroke="#ff6b35" stroke-width="8" stroke-linecap="round"/>
  <path d="M 130 160 L 100 180 L 80 200" fill="none" stroke="#ff6b35" stroke-width="8" stroke-linecap="round"/>
  
  <!-- Right legs -->
  <path d="M 270 140 L 310 160 L 330 180" fill="none" stroke="#ff6b35" stroke-width="8" stroke-linecap="round"/>
  <path d="M 270 150 L 305 170 L 325 190" fill="none" stroke="#ff6b35" stroke-width="8" stroke-linecap="round"/>
  <path d="M 270 160 L 300 180 L 320 200" fill="none" stroke="#ff6b35" stroke-width="8" stroke-linecap="round"/>
  
  <!-- Eye stalks -->
  <line x1="180" y1="110" x2="175" y2="90" stroke="#ff6b35" stroke-width="4" stroke-linecap="round"/>
  <line x1="220" y1="110" x2="225" y2="90" stroke="#ff6b35" stroke-width="4" stroke-linecap="round"/>
  
  <!-- Eyes -->
  <circle cx="175" cy="90" r="10" fill="#ffffff" stroke="#d84315" stroke-width="2"/>
  <circle cx="225" cy="90" r="10" fill="#ffffff" stroke="#d84315" stroke-width="2"/>
  <circle cx="175" cy="90" r="6" fill="#000000"/>
  <circle cx="225" cy="90" r="6" fill="#000000"/>
  <circle cx="177" cy="88" r="2" fill="#ffffff"/>
  <circle cx="227" cy="88" r="2" fill="#ffffff"/>
  
  <!-- Mouth -->
  <path d="M 185 170 Q 200 175 215 170" fill="none" stroke="#d84315" stroke-width="2" stroke-linecap="round"/>
</g>
<style>
.wobble {
    animation: wobble 4s ease infinite;
}

@keyframes wobble {
    0%, 18% {
        -webkit-transform: translateX(0%);
        transform: translateX(0%);
        -webkit-transform-origin: 50% 50%;
        transform-origin: 50% 50%;
    }

    3% {
        -webkit-transform: translateX(-32px) rotate(-10deg);
        transform: translateX(-32px) rotate(-10deg);
    }

    6% {
        -webkit-transform: translateX(calc(32px / 2)) rotate(10deg);
        transform: translateX(calc(32px / 2)) rotate(10deg);
    }

    9% {
        -webkit-transform: translateX(calc(-32px / 2)) rotate(calc(-10deg / 1.8));
        transform: translateX(calc(-32px / 2)) rotate(calc(-10deg / 1.8));
    }

    12% {
        -webkit-transform: translateX(calc(32px / 3.3)) rotate(calc(10deg / 3));
        transform: translateX(calc(32px / 3.3)) rotate(calc(10deg / 3));
    }

    15% {
        -webkit-transform: translateX(calc(-32px / 5.5)) rotate(calc(-10deg / 5));
        transform: translateX(calc(-32px / 5.5)) rotate(calc(-10deg / 5));
    }
}
</style>
</svg>